<?xml version="1.0" encoding="UTF-8"?>
<svg xmlns="http://www.w3.org/2000/svg" xmlns:xlink="http://www.w3.org/1999/xlink" width="854" height="480" viewBox="0 0 854 480">
<defs>
<g>
<g id="glyph-0-0">
<path d="M 3.578125 -3.75 L 3.578125 -3.171875 C 3.398438 -3.335938 3.203125 -3.460938 2.984375 -3.546875 C 2.773438 -3.628906 2.554688 -3.671875 2.328125 -3.671875 C 1.859375 -3.671875 1.5 -3.53125 1.25 -3.25 C 1.007812 -2.96875 0.890625 -2.5625 0.890625 -2.03125 C 0.890625 -1.488281 1.007812 -1.078125 1.25 -0.796875 C 1.5 -0.515625 1.859375 -0.375 2.328125 -0.375 C 2.554688 -0.375 2.773438 -0.414062 2.984375 -0.5 C 3.203125 -0.582031 3.398438 -0.710938 3.578125 -0.890625 L 3.578125 -0.3125 C 3.390625 -0.175781 3.1875 -0.078125 2.96875 -0.015625 C 2.757812 0.046875 2.535156 0.078125 2.296875 0.078125 C 1.679688 0.078125 1.195312 -0.109375 0.84375 -0.484375 C 0.488281 -0.859375 0.3125 -1.375 0.3125 -2.03125 C 0.3125 -2.675781 0.488281 -3.1875 0.84375 -3.5625 C 1.195312 -3.9375 1.679688 -4.125 2.296875 -4.125 C 2.535156 -4.125 2.757812 -4.09375 2.96875 -4.03125 C 3.1875 -3.96875 3.390625 -3.875 3.578125 -3.75 Z "/>
</g>
<g id="glyph-0-1">
<path d="M 1.703125 -2.6875 C 1.429688 -2.6875 1.21875 -2.582031 1.0625 -2.375 C 0.90625 -2.164062 0.828125 -1.878906 0.828125 -1.515625 C 0.828125 -1.148438 0.90625 -0.863281 1.0625 -0.65625 C 1.21875 -0.445312 1.429688 -0.34375 1.703125 -0.34375 C 1.972656 -0.34375 2.179688 -0.445312 2.328125 -0.65625 C 2.484375 -0.863281 2.5625 -1.148438 2.5625 -1.515625 C 2.5625 -1.878906 2.484375 -2.164062 2.328125 -2.375 C 2.179688 -2.582031 1.972656 -2.6875 1.703125 -2.6875 Z M 1.703125 -3.109375 C 2.140625 -3.109375 2.476562 -2.96875 2.71875 -2.6875 C 2.96875 -2.40625 3.09375 -2.015625 3.09375 -1.515625 C 3.09375 -1.015625 2.96875 -0.625 2.71875 -0.34375 C 2.476562 -0.0625 2.140625 0.078125 1.703125 0.078125 C 1.265625 0.078125 0.921875 -0.0625 0.671875 -0.34375 C 0.429688 -0.625 0.3125 -1.015625 0.3125 -1.515625 C 0.3125 -2.015625 0.429688 -2.40625 0.671875 -2.6875 C 0.921875 -2.96875 1.265625 -3.109375 1.703125 -3.109375 Z "/>
</g>
<g id="glyph-0-2">
<path d="M 2.890625 -2.453125 C 3.015625 -2.679688 3.160156 -2.847656 3.328125 -2.953125 C 3.503906 -3.054688 3.710938 -3.109375 3.953125 -3.109375 C 4.273438 -3.109375 4.519531 -3 4.6875 -2.78125 C 4.863281 -2.5625 4.953125 -2.25 4.953125 -1.84375 L 4.953125 0 L 4.4375 0 L 4.4375 -1.8125 C 4.4375 -2.101562 4.382812 -2.320312 4.28125 -2.46875 C 4.1875 -2.613281 4.03125 -2.6875 3.8125 -2.6875 C 3.550781 -2.6875 3.347656 -2.597656 3.203125 -2.421875 C 3.054688 -2.253906 2.984375 -2.019531 2.984375 -1.71875 L 2.984375 0 L 2.46875 0 L 2.46875 -1.8125 C 2.46875 -2.113281 2.414062 -2.332031 2.3125 -2.46875 C 2.21875 -2.613281 2.0625 -2.6875 1.84375 -2.6875 C 1.582031 -2.6875 1.375 -2.597656 1.21875 -2.421875 C 1.070312 -2.242188 1 -2.007812 1 -1.71875 L 1 0 L 0.5 0 L 0.5 -3.046875 L 1 -3.046875 L 1 -2.5625 C 1.113281 -2.75 1.25 -2.882812 1.40625 -2.96875 C 1.570312 -3.0625 1.765625 -3.109375 1.984375 -3.109375 C 2.203125 -3.109375 2.390625 -3.050781 2.546875 -2.9375 C 2.703125 -2.832031 2.816406 -2.671875 2.890625 -2.453125 Z "/>
</g>
<g id="glyph-0-3">
<path d="M 0.46875 -1.203125 L 0.46875 -3.046875 L 0.96875 -3.046875 L 0.96875 -1.21875 C 0.96875 -0.925781 1.023438 -0.707031 1.140625 -0.5625 C 1.253906 -0.425781 1.421875 -0.359375 1.640625 -0.359375 C 1.910156 -0.359375 2.125 -0.441406 2.28125 -0.609375 C 2.4375 -0.785156 2.515625 -1.019531 2.515625 -1.3125 L 2.515625 -3.046875 L 3.015625 -3.046875 L 3.015625 0 L 2.515625 0 L 2.515625 -0.46875 C 2.398438 -0.28125 2.257812 -0.140625 2.09375 -0.046875 C 1.9375 0.0351562 1.753906 0.078125 1.546875 0.078125 C 1.191406 0.078125 0.921875 -0.03125 0.734375 -0.25 C 0.554688 -0.46875 0.46875 -0.785156 0.46875 -1.203125 Z M 1.734375 -3.109375 Z "/>
</g>
<g id="glyph-0-4">
<path d="M 3.046875 -1.84375 L 3.046875 0 L 2.546875 0 L 2.546875 -1.8125 C 2.546875 -2.101562 2.488281 -2.320312 2.375 -2.46875 C 2.269531 -2.613281 2.101562 -2.6875 1.875 -2.6875 C 1.601562 -2.6875 1.390625 -2.597656 1.234375 -2.421875 C 1.078125 -2.253906 1 -2.019531 1 -1.71875 L 1 0 L 0.5 0 L 0.5 -3.046875 L 1 -3.046875 L 1 -2.5625 C 1.125 -2.75 1.265625 -2.882812 1.421875 -2.96875 C 1.585938 -3.0625 1.773438 -3.109375 1.984375 -3.109375 C 2.335938 -3.109375 2.601562 -3 2.78125 -2.78125 C 2.957031 -2.570312 3.046875 -2.257812 3.046875 -1.84375 Z "/>
</g>
<g id="glyph-0-5">
<path d="M 0.53125 -3.046875 L 1.03125 -3.046875 L 1.03125 0 L 0.53125 0 Z M 0.53125 -4.21875 L 1.03125 -4.21875 L 1.03125 -3.59375 L 0.53125 -3.59375 Z "/>
</g>
<g id="glyph-0-6">
<path d="M 2.71875 -2.921875 L 2.71875 -2.453125 C 2.570312 -2.535156 2.425781 -2.59375 2.28125 -2.625 C 2.144531 -2.664062 2.003906 -2.6875 1.859375 -2.6875 C 1.535156 -2.6875 1.28125 -2.582031 1.09375 -2.375 C 0.914062 -2.175781 0.828125 -1.890625 0.828125 -1.515625 C 0.828125 -1.148438 0.914062 -0.863281 1.09375 -0.65625 C 1.28125 -0.445312 1.535156 -0.34375 1.859375 -0.34375 C 2.003906 -0.34375 2.144531 -0.363281 2.28125 -0.40625 C 2.425781 -0.445312 2.570312 -0.503906 2.71875 -0.578125 L 2.71875 -0.109375 C 2.570312 -0.046875 2.425781 0 2.28125 0.03125 C 2.132812 0.0625 1.972656 0.078125 1.796875 0.078125 C 1.335938 0.078125 0.972656 -0.0625 0.703125 -0.34375 C 0.441406 -0.632812 0.3125 -1.023438 0.3125 -1.515625 C 0.3125 -2.015625 0.445312 -2.40625 0.71875 -2.6875 C 0.988281 -2.96875 1.363281 -3.109375 1.84375 -3.109375 C 1.988281 -3.109375 2.132812 -3.09375 2.28125 -3.0625 C 2.425781 -3.03125 2.570312 -2.984375 2.71875 -2.921875 Z "/>
</g>
<g id="glyph-0-7">
<path d="M 1.90625 -1.53125 C 1.5 -1.53125 1.21875 -1.484375 1.0625 -1.390625 C 0.90625 -1.296875 0.828125 -1.140625 0.828125 -0.921875 C 0.828125 -0.742188 0.882812 -0.601562 1 -0.5 C 1.125 -0.394531 1.285156 -0.34375 1.484375 -0.34375 C 1.765625 -0.34375 1.988281 -0.4375 2.15625 -0.625 C 2.320312 -0.820312 2.40625 -1.085938 2.40625 -1.421875 L 2.40625 -1.53125 Z M 2.90625 -1.734375 L 2.90625 0 L 2.40625 0 L 2.40625 -0.46875 C 2.289062 -0.28125 2.144531 -0.140625 1.96875 -0.046875 C 1.800781 0.0351562 1.597656 0.078125 1.359375 0.078125 C 1.046875 0.078125 0.796875 -0.0078125 0.609375 -0.1875 C 0.421875 -0.363281 0.328125 -0.597656 0.328125 -0.890625 C 0.328125 -1.234375 0.441406 -1.488281 0.671875 -1.65625 C 0.898438 -1.832031 1.242188 -1.921875 1.703125 -1.921875 L 2.40625 -1.921875 L 2.40625 -1.96875 C 2.40625 -2.195312 2.328125 -2.375 2.171875 -2.5 C 2.023438 -2.625 1.816406 -2.6875 1.546875 -2.6875 C 1.367188 -2.6875 1.195312 -2.664062 1.03125 -2.625 C 0.863281 -2.582031 0.707031 -2.519531 0.5625 -2.4375 L 0.5625 -2.90625 C 0.738281 -2.976562 0.910156 -3.03125 1.078125 -3.0625 C 1.253906 -3.09375 1.425781 -3.109375 1.59375 -3.109375 C 2.03125 -3.109375 2.359375 -2.992188 2.578125 -2.765625 C 2.796875 -2.546875 2.90625 -2.203125 2.90625 -1.734375 Z "/>
</g>
<g id="glyph-0-8">
</g>
<g id="glyph-0-9">
<path d="M 2.53125 -2.578125 L 2.53125 -4.21875 L 3.03125 -4.21875 L 3.03125 0 L 2.53125 0 L 2.53125 -0.453125 C 2.425781 -0.273438 2.289062 -0.140625 2.125 -0.046875 C 1.96875 0.0351562 1.773438 0.078125 1.546875 0.078125 C 1.179688 0.078125 0.882812 -0.0664062 0.65625 -0.359375 C 0.425781 -0.648438 0.3125 -1.035156 0.3125 -1.515625 C 0.3125 -1.992188 0.425781 -2.378906 0.65625 -2.671875 C 0.882812 -2.960938 1.179688 -3.109375 1.546875 -3.109375 C 1.773438 -3.109375 1.96875 -3.066406 2.125 -2.984375 C 2.289062 -2.898438 2.425781 -2.765625 2.53125 -2.578125 Z M 0.828125 -1.515625 C 0.828125 -1.148438 0.898438 -0.863281 1.046875 -0.65625 C 1.203125 -0.445312 1.410156 -0.34375 1.671875 -0.34375 C 1.929688 -0.34375 2.140625 -0.445312 2.296875 -0.65625 C 2.453125 -0.863281 2.53125 -1.148438 2.53125 -1.515625 C 2.53125 -1.878906 2.453125 -2.164062 2.296875 -2.375 C 2.140625 -2.59375 1.929688 -2.703125 1.671875 -2.703125 C 1.410156 -2.703125 1.203125 -2.59375 1.046875 -2.375 C 0.898438 -2.164062 0.828125 -1.878906 0.828125 -1.515625 Z "/>
</g>
<g id="glyph-0-10">
<path d="M 3.125 -1.640625 L 3.125 -1.40625 L 0.828125 -1.40625 C 0.847656 -1.0625 0.953125 -0.796875 1.140625 -0.609375 C 1.328125 -0.429688 1.585938 -0.34375 1.921875 -0.34375 C 2.109375 -0.34375 2.289062 -0.363281 2.46875 -0.40625 C 2.65625 -0.457031 2.835938 -0.53125 3.015625 -0.625 L 3.015625 -0.15625 C 2.828125 -0.0820312 2.640625 -0.0234375 2.453125 0.015625 C 2.265625 0.0546875 2.078125 0.078125 1.890625 0.078125 C 1.398438 0.078125 1.015625 -0.0625 0.734375 -0.34375 C 0.453125 -0.625 0.3125 -1.003906 0.3125 -1.484375 C 0.3125 -1.984375 0.441406 -2.378906 0.703125 -2.671875 C 0.972656 -2.960938 1.335938 -3.109375 1.796875 -3.109375 C 2.203125 -3.109375 2.523438 -2.976562 2.765625 -2.71875 C 3.003906 -2.457031 3.125 -2.097656 3.125 -1.640625 Z M 2.625 -1.796875 C 2.625 -2.066406 2.546875 -2.28125 2.390625 -2.4375 C 2.242188 -2.601562 2.046875 -2.6875 1.796875 -2.6875 C 1.523438 -2.6875 1.300781 -2.609375 1.125 -2.453125 C 0.957031 -2.296875 0.863281 -2.078125 0.84375 -1.796875 Z "/>
</g>
<g id="glyph-0-11">
<path d="M 1.09375 -3.609375 L 1.09375 -0.453125 L 1.75 -0.453125 C 2.3125 -0.453125 2.722656 -0.578125 2.984375 -0.828125 C 3.242188 -1.085938 3.375 -1.488281 3.375 -2.03125 C 3.375 -2.570312 3.242188 -2.96875 2.984375 -3.21875 C 2.722656 -3.476562 2.3125 -3.609375 1.75 -3.609375 Z M 0.546875 -4.0625 L 1.671875 -4.0625 C 2.460938 -4.0625 3.039062 -3.894531 3.40625 -3.5625 C 3.769531 -3.238281 3.953125 -2.726562 3.953125 -2.03125 C 3.953125 -1.332031 3.765625 -0.816406 3.390625 -0.484375 C 3.023438 -0.160156 2.453125 0 1.671875 0 L 0.546875 0 Z "/>
</g>
<g id="glyph-0-12">
<path d="M 1.015625 -3.90625 L 1.015625 -3.046875 L 2.046875 -3.046875 L 2.046875 -2.65625 L 1.015625 -2.65625 L 1.015625 -1 C 1.015625 -0.75 1.046875 -0.585938 1.109375 -0.515625 C 1.179688 -0.453125 1.320312 -0.421875 1.53125 -0.421875 L 2.046875 -0.421875 L 2.046875 0 L 1.53125 0 C 1.144531 0 0.878906 -0.0703125 0.734375 -0.21875 C 0.585938 -0.363281 0.515625 -0.625 0.515625 -1 L 0.515625 -2.65625 L 0.15625 -2.65625 L 0.15625 -3.046875 L 0.515625 -3.046875 L 0.515625 -3.90625 Z "/>
</g>
<g id="glyph-0-13">
<path d="M 2.46875 -2.953125 L 2.46875 -2.484375 C 2.320312 -2.554688 2.171875 -2.609375 2.015625 -2.640625 C 1.867188 -2.679688 1.710938 -2.703125 1.546875 -2.703125 C 1.296875 -2.703125 1.109375 -2.660156 0.984375 -2.578125 C 0.867188 -2.503906 0.8125 -2.390625 0.8125 -2.234375 C 0.8125 -2.117188 0.851562 -2.03125 0.9375 -1.96875 C 1.03125 -1.90625 1.207031 -1.84375 1.46875 -1.78125 L 1.640625 -1.734375 C 1.992188 -1.660156 2.242188 -1.554688 2.390625 -1.421875 C 2.546875 -1.285156 2.625 -1.09375 2.625 -0.84375 C 2.625 -0.5625 2.507812 -0.335938 2.28125 -0.171875 C 2.0625 -0.00390625 1.757812 0.078125 1.375 0.078125 C 1.207031 0.078125 1.035156 0.0625 0.859375 0.03125 C 0.679688 0 0.492188 -0.046875 0.296875 -0.109375 L 0.296875 -0.625 C 0.484375 -0.53125 0.664062 -0.457031 0.84375 -0.40625 C 1.019531 -0.363281 1.195312 -0.34375 1.375 -0.34375 C 1.613281 -0.34375 1.796875 -0.378906 1.921875 -0.453125 C 2.046875 -0.535156 2.109375 -0.648438 2.109375 -0.796875 C 2.109375 -0.929688 2.0625 -1.035156 1.96875 -1.109375 C 1.882812 -1.179688 1.6875 -1.253906 1.375 -1.328125 L 1.203125 -1.359375 C 0.890625 -1.429688 0.664062 -1.53125 0.53125 -1.65625 C 0.394531 -1.789062 0.328125 -1.976562 0.328125 -2.21875 C 0.328125 -2.5 0.425781 -2.71875 0.625 -2.875 C 0.832031 -3.03125 1.117188 -3.109375 1.484375 -3.109375 C 1.671875 -3.109375 1.84375 -3.09375 2 -3.0625 C 2.164062 -3.039062 2.320312 -3.003906 2.46875 -2.953125 Z "/>
</g>
</g>
</defs>
<g fill="rgb(73.333333%, 73.333333%, 73.333333%)" fill-opacity="1">
<use xlink:href="#glyph-0-0" x="30" y="25.157227"/>
<use xlink:href="#glyph-0-1" x="34" y="25.157227"/>
<use xlink:href="#glyph-0-2" x="37" y="25.157227"/>
<use xlink:href="#glyph-0-3" x="42" y="25.157227"/>
<use xlink:href="#glyph-0-4" x="46" y="25.157227"/>
<use xlink:href="#glyph-0-5" x="50" y="25.157227"/>
<use xlink:href="#glyph-0-6" x="52" y="25.157227"/>
<use xlink:href="#glyph-0-7" x="55" y="25.157227"/>
<use xlink:href="#glyph-0-6" x="58" y="25.157227"/>
<use xlink:href="#glyph-0-5" x="61" y="25.157227"/>
<use xlink:href="#glyph-0-1" x="63" y="25.157227"/>
<use xlink:href="#glyph-0-4" x="66" y="25.157227"/>
<use xlink:href="#glyph-0-8" x="70" y="25.157227"/>
<use xlink:href="#glyph-0-9" x="72" y="25.157227"/>
<use xlink:href="#glyph-0-10" x="76" y="25.157227"/>
<use xlink:href="#glyph-0-8" x="79" y="25.157227"/>
<use xlink:href="#glyph-0-11" x="81" y="25.157227"/>
<use xlink:href="#glyph-0-7" x="85" y="25.157227"/>
<use xlink:href="#glyph-0-12" x="88" y="25.157227"/>
<use xlink:href="#glyph-0-1" x="90" y="25.157227"/>
<use xlink:href="#glyph-0-13" x="93" y="25.157227"/>
</g>
</svg>
