<?xml version="1.0" encoding="UTF-8"?>
<svg xmlns="http://www.w3.org/2000/svg" xmlns:xlink="http://www.w3.org/1999/xlink" width="854" height="480" viewBox="0 0 854 480">
<defs>
<g>
<g id="glyph-0-0">
<path d="M 1.421875 -4.671875 L 1.421875 -2.703125 L 2.3125 -2.703125 C 2.644531 -2.703125 2.898438 -2.785156 3.078125 -2.953125 C 3.265625 -3.128906 3.359375 -3.375 3.359375 -3.6875 C 3.359375 -4 3.265625 -4.238281 3.078125 -4.40625 C 2.898438 -4.582031 2.644531 -4.671875 2.3125 -4.671875 Z M 0.703125 -5.265625 L 2.3125 -5.265625 C 2.90625 -5.265625 3.351562 -5.128906 3.65625 -4.859375 C 3.957031 -4.597656 4.109375 -4.207031 4.109375 -3.6875 C 4.109375 -3.164062 3.957031 -2.769531 3.65625 -2.5 C 3.351562 -2.238281 2.90625 -2.109375 2.3125 -2.109375 L 1.421875 -2.109375 L 1.421875 0 L 0.703125 0 Z "/>
</g>
<g id="glyph-0-1">
<path d="M 2.234375 -5.484375 C 1.921875 -4.941406 1.6875 -4.40625 1.53125 -3.875 C 1.382812 -3.34375 1.3125 -2.804688 1.3125 -2.265625 C 1.3125 -1.722656 1.382812 -1.1875 1.53125 -0.65625 C 1.6875 -0.125 1.921875 0.410156 2.234375 0.953125 L 1.671875 0.953125 C 1.316406 0.398438 1.050781 -0.140625 0.875 -0.671875 C 0.707031 -1.210938 0.625 -1.742188 0.625 -2.265625 C 0.625 -2.785156 0.707031 -3.3125 0.875 -3.84375 C 1.050781 -4.375 1.316406 -4.921875 1.671875 -5.484375 Z "/>
</g>
<g id="glyph-0-2">
<path d="M 2.296875 -4.796875 C 1.929688 -4.796875 1.65625 -4.613281 1.46875 -4.25 C 1.28125 -3.894531 1.1875 -3.351562 1.1875 -2.625 C 1.1875 -1.90625 1.28125 -1.363281 1.46875 -1 C 1.65625 -0.644531 1.929688 -0.46875 2.296875 -0.46875 C 2.660156 -0.46875 2.9375 -0.644531 3.125 -1 C 3.3125 -1.363281 3.40625 -1.90625 3.40625 -2.625 C 3.40625 -3.351562 3.3125 -3.894531 3.125 -4.25 C 2.9375 -4.613281 2.660156 -4.796875 2.296875 -4.796875 Z M 2.296875 -5.359375 C 2.878906 -5.359375 3.328125 -5.125 3.640625 -4.65625 C 3.953125 -4.1875 4.109375 -3.507812 4.109375 -2.625 C 4.109375 -1.738281 3.953125 -1.0625 3.640625 -0.59375 C 3.328125 -0.125 2.878906 0.109375 2.296875 0.109375 C 1.703125 0.109375 1.25 -0.125 0.9375 -0.59375 C 0.625 -1.0625 0.46875 -1.738281 0.46875 -2.625 C 0.46875 -3.507812 0.625 -4.1875 0.9375 -4.65625 C 1.25 -5.125 1.703125 -5.359375 2.296875 -5.359375 Z "/>
</g>
<g id="glyph-0-3">
<path d="M 0.578125 -5.484375 L 1.140625 -5.484375 C 1.492188 -4.921875 1.757812 -4.375 1.9375 -3.84375 C 2.113281 -3.3125 2.203125 -2.785156 2.203125 -2.265625 C 2.203125 -1.742188 2.113281 -1.210938 1.9375 -0.671875 C 1.757812 -0.140625 1.492188 0.398438 1.140625 0.953125 L 0.578125 0.953125 C 0.890625 0.410156 1.125 -0.125 1.28125 -0.65625 C 1.4375 -1.1875 1.515625 -1.722656 1.515625 -2.265625 C 1.515625 -2.804688 1.4375 -3.34375 1.28125 -3.875 C 1.125 -4.40625 0.890625 -4.941406 0.578125 -5.484375 Z "/>
</g>
<g id="glyph-0-4">
<path d="M 0.765625 -3.28125 L 5.28125 -3.28125 L 5.28125 -2.6875 L 0.765625 -2.6875 Z M 0.765625 -1.84375 L 5.28125 -1.84375 L 5.28125 -1.234375 L 0.765625 -1.234375 Z "/>
</g>
<g id="glyph-0-5">
<path d="M 0.890625 -0.59375 L 2.0625 -0.59375 L 2.0625 -4.609375 L 0.796875 -4.359375 L 0.796875 -5.015625 L 2.046875 -5.265625 L 2.765625 -5.265625 L 2.765625 -0.59375 L 3.921875 -0.59375 L 3.921875 0 L 0.890625 0 Z "/>
</g>
<g id="glyph-0-6">
<path d="M 0.765625 -0.890625 L 1.515625 -0.890625 L 1.515625 0 L 0.765625 0 Z "/>
</g>
<g id="glyph-0-7">
<path d="M 0.78125 -5.265625 L 3.578125 -5.265625 L 3.578125 -4.65625 L 1.4375 -4.65625 L 1.4375 -3.375 C 1.539062 -3.40625 1.640625 -3.429688 1.734375 -3.453125 C 1.835938 -3.472656 1.941406 -3.484375 2.046875 -3.484375 C 2.640625 -3.484375 3.109375 -3.320312 3.453125 -3 C 3.796875 -2.675781 3.96875 -2.238281 3.96875 -1.6875 C 3.96875 -1.125 3.789062 -0.679688 3.4375 -0.359375 C 3.082031 -0.046875 2.582031 0.109375 1.9375 0.109375 C 1.71875 0.109375 1.492188 0.0859375 1.265625 0.046875 C 1.035156 0.00390625 0.800781 -0.0507812 0.5625 -0.125 L 0.5625 -0.84375 C 0.769531 -0.726562 0.984375 -0.640625 1.203125 -0.578125 C 1.429688 -0.523438 1.671875 -0.5 1.921875 -0.5 C 2.328125 -0.5 2.648438 -0.601562 2.890625 -0.8125 C 3.128906 -1.03125 3.25 -1.320312 3.25 -1.6875 C 3.25 -2.050781 3.128906 -2.335938 2.890625 -2.546875 C 2.648438 -2.765625 2.328125 -2.875 1.921875 -2.875 C 1.734375 -2.875 1.546875 -2.851562 1.359375 -2.8125 C 1.171875 -2.769531 0.976562 -2.707031 0.78125 -2.625 Z "/>
</g>
</g>
</defs>
<g fill="rgb(100%, 100%, 100%)" fill-opacity="1">
<use xlink:href="#glyph-0-0" x="30" y="26.704102"/>
<use xlink:href="#glyph-0-1" x="34" y="26.704102"/>
<use xlink:href="#glyph-0-2" x="37" y="26.704102"/>
<use xlink:href="#glyph-0-3" x="42" y="26.704102"/>
<use xlink:href="#glyph-0-4" x="45" y="26.704102"/>
<use xlink:href="#glyph-0-0" x="51" y="26.704102"/>
<use xlink:href="#glyph-0-1" x="55" y="26.704102"/>
<use xlink:href="#glyph-0-5" x="58" y="26.704102"/>
<use xlink:href="#glyph-0-3" x="63" y="26.704102"/>
<use xlink:href="#glyph-0-4" x="66" y="26.704102"/>
<use xlink:href="#glyph-0-2" x="72" y="26.704102"/>
<use xlink:href="#glyph-0-6" x="77" y="26.704102"/>
<use xlink:href="#glyph-0-7" x="79" y="26.704102"/>
</g>
</svg>
