<?xml version="1.0" encoding="UTF-8"?>
<svg xmlns="http://www.w3.org/2000/svg" xmlns:xlink="http://www.w3.org/1999/xlink" width="854" height="480" viewBox="0 0 854 480">
<defs>
<g>
<g id="glyph-0-0">
<path d="M 2.71875 -2.09375 C 2.84375 -2.039062 2.960938 -1.941406 3.078125 -1.796875 C 3.203125 -1.660156 3.328125 -1.46875 3.453125 -1.21875 L 4.0625 0 L 3.421875 0 L 2.859375 -1.140625 C 2.703125 -1.441406 2.554688 -1.640625 2.421875 -1.734375 C 2.285156 -1.828125 2.097656 -1.875 1.859375 -1.875 L 1.203125 -1.875 L 1.203125 0 L 0.59375 0 L 0.59375 -4.453125 L 1.953125 -4.453125 C 2.460938 -4.453125 2.84375 -4.34375 3.09375 -4.125 C 3.34375 -3.914062 3.46875 -3.597656 3.46875 -3.171875 C 3.46875 -2.890625 3.398438 -2.65625 3.265625 -2.46875 C 3.140625 -2.289062 2.957031 -2.164062 2.71875 -2.09375 Z M 1.203125 -3.953125 L 1.203125 -2.375 L 1.953125 -2.375 C 2.242188 -2.375 2.460938 -2.441406 2.609375 -2.578125 C 2.765625 -2.710938 2.84375 -2.910156 2.84375 -3.171875 C 2.84375 -3.429688 2.765625 -3.625 2.609375 -3.75 C 2.460938 -3.882812 2.242188 -3.953125 1.953125 -3.953125 Z "/>
</g>
<g id="glyph-0-1">
<path d="M 2.09375 -1.671875 C 1.644531 -1.671875 1.335938 -1.617188 1.171875 -1.515625 C 1.003906 -1.421875 0.921875 -1.253906 0.921875 -1.015625 C 0.921875 -0.816406 0.984375 -0.660156 1.109375 -0.546875 C 1.234375 -0.429688 1.40625 -0.375 1.625 -0.375 C 1.9375 -0.375 2.179688 -0.476562 2.359375 -0.6875 C 2.546875 -0.90625 2.640625 -1.195312 2.640625 -1.5625 L 2.640625 -1.671875 Z M 3.1875 -1.90625 L 3.1875 0 L 2.640625 0 L 2.640625 -0.5 C 2.515625 -0.300781 2.359375 -0.148438 2.171875 -0.046875 C 1.984375 0.0429688 1.753906 0.09375 1.484375 0.09375 C 1.140625 0.09375 0.863281 0 0.65625 -0.1875 C 0.457031 -0.382812 0.359375 -0.644531 0.359375 -0.96875 C 0.359375 -1.34375 0.484375 -1.625 0.734375 -1.8125 C 0.992188 -2.007812 1.375 -2.109375 1.875 -2.109375 L 2.640625 -2.109375 L 2.640625 -2.15625 C 2.640625 -2.414062 2.554688 -2.613281 2.390625 -2.75 C 2.222656 -2.882812 1.988281 -2.953125 1.6875 -2.953125 C 1.5 -2.953125 1.3125 -2.925781 1.125 -2.875 C 0.945312 -2.832031 0.773438 -2.769531 0.609375 -2.6875 L 0.609375 -3.1875 C 0.804688 -3.269531 1 -3.328125 1.1875 -3.359375 C 1.382812 -3.398438 1.570312 -3.421875 1.75 -3.421875 C 2.226562 -3.421875 2.585938 -3.296875 2.828125 -3.046875 C 3.066406 -2.796875 3.1875 -2.414062 3.1875 -1.90625 Z "/>
</g>
<g id="glyph-0-2">
<path d="M 1.96875 0.3125 C 1.8125 0.707031 1.660156 0.960938 1.515625 1.078125 C 1.367188 1.203125 1.171875 1.265625 0.921875 1.265625 L 0.484375 1.265625 L 0.484375 0.8125 L 0.8125 0.8125 C 0.957031 0.8125 1.070312 0.773438 1.15625 0.703125 C 1.238281 0.628906 1.332031 0.460938 1.4375 0.203125 L 1.53125 -0.046875 L 0.1875 -3.34375 L 0.765625 -3.34375 L 1.8125 -0.734375 L 2.859375 -3.34375 L 3.4375 -3.34375 Z "/>
</g>
<g id="glyph-0-3">
<path d="M 0.71875 -0.75 L 1.34375 -0.75 L 1.34375 0 L 0.71875 0 Z M 0.71875 -3.15625 L 1.34375 -3.15625 L 1.34375 -2.40625 L 0.71875 -2.40625 Z "/>
</g>
<g id="glyph-0-4">
</g>
<g id="glyph-0-5">
<path d="M 1.203125 -3.953125 L 1.203125 -2.28125 L 1.953125 -2.28125 C 2.234375 -2.28125 2.453125 -2.351562 2.609375 -2.5 C 2.765625 -2.644531 2.84375 -2.851562 2.84375 -3.125 C 2.84375 -3.382812 2.765625 -3.585938 2.609375 -3.734375 C 2.453125 -3.878906 2.234375 -3.953125 1.953125 -3.953125 Z M 0.59375 -4.453125 L 1.953125 -4.453125 C 2.453125 -4.453125 2.828125 -4.335938 3.078125 -4.109375 C 3.335938 -3.890625 3.46875 -3.5625 3.46875 -3.125 C 3.46875 -2.6875 3.335938 -2.351562 3.078125 -2.125 C 2.828125 -1.90625 2.453125 -1.796875 1.953125 -1.796875 L 1.203125 -1.796875 L 1.203125 0 L 0.59375 0 Z "/>
</g>
<g id="glyph-0-6">
<path d="M 0.640625 -2.78125 L 4.46875 -2.78125 L 4.46875 -2.265625 L 0.640625 -2.265625 Z M 0.640625 -1.5625 L 4.46875 -1.5625 L 4.46875 -1.046875 L 0.640625 -1.046875 Z "/>
</g>
<g id="glyph-0-7">
<path d="M 0.75 -0.5 L 1.734375 -0.5 L 1.734375 -3.90625 L 0.671875 -3.6875 L 0.671875 -4.234375 L 1.734375 -4.453125 L 2.34375 -4.453125 L 2.34375 -0.5 L 3.328125 -0.5 L 3.328125 0 L 0.75 0 Z "/>
</g>
<g id="glyph-0-8">
<path d="M 1.546875 -4.453125 L 2.0625 -4.453125 L 0.5 0.5625 L 0 0.5625 Z "/>
</g>
<g id="glyph-0-9">
<path d="M 2.484375 -2.40625 C 2.765625 -2.34375 2.984375 -2.210938 3.140625 -2.015625 C 3.304688 -1.816406 3.390625 -1.578125 3.390625 -1.296875 C 3.390625 -0.859375 3.238281 -0.515625 2.9375 -0.265625 C 2.632812 -0.0234375 2.207031 0.09375 1.65625 0.09375 C 1.46875 0.09375 1.273438 0.0703125 1.078125 0.03125 C 0.878906 -0.0078125 0.675781 -0.0664062 0.46875 -0.140625 L 0.46875 -0.71875 C 0.632812 -0.613281 0.816406 -0.535156 1.015625 -0.484375 C 1.210938 -0.441406 1.421875 -0.421875 1.640625 -0.421875 C 2.015625 -0.421875 2.300781 -0.492188 2.5 -0.640625 C 2.695312 -0.796875 2.796875 -1.015625 2.796875 -1.296875 C 2.796875 -1.554688 2.703125 -1.757812 2.515625 -1.90625 C 2.335938 -2.0625 2.082031 -2.140625 1.75 -2.140625 L 1.234375 -2.140625 L 1.234375 -2.625 L 1.78125 -2.625 C 2.070312 -2.625 2.296875 -2.679688 2.453125 -2.796875 C 2.609375 -2.921875 2.6875 -3.09375 2.6875 -3.3125 C 2.6875 -3.539062 2.601562 -3.71875 2.4375 -3.84375 C 2.28125 -3.96875 2.050781 -4.03125 1.75 -4.03125 C 1.582031 -4.03125 1.40625 -4.007812 1.21875 -3.96875 C 1.03125 -3.9375 0.820312 -3.882812 0.59375 -3.8125 L 0.59375 -4.34375 C 0.820312 -4.40625 1.035156 -4.453125 1.234375 -4.484375 C 1.441406 -4.515625 1.632812 -4.53125 1.8125 -4.53125 C 2.269531 -4.53125 2.628906 -4.425781 2.890625 -4.21875 C 3.160156 -4.007812 3.296875 -3.726562 3.296875 -3.375 C 3.296875 -3.132812 3.222656 -2.925781 3.078125 -2.75 C 2.941406 -2.582031 2.742188 -2.46875 2.484375 -2.40625 Z "/>
</g>
<g id="glyph-0-10">
<path d="M 0.71875 -0.75 L 1.34375 -0.75 L 1.34375 -0.25 L 0.859375 0.703125 L 0.46875 0.703125 L 0.71875 -0.25 Z "/>
</g>
<g id="glyph-0-11">
<path d="M 1.125 -4.296875 L 1.125 -3.34375 L 2.25 -3.34375 L 2.25 -2.921875 L 1.125 -2.921875 L 1.125 -1.09375 C 1.125 -0.820312 1.160156 -0.644531 1.234375 -0.5625 C 1.304688 -0.488281 1.457031 -0.453125 1.6875 -0.453125 L 2.25 -0.453125 L 2.25 0 L 1.6875 0 C 1.257812 0 0.960938 -0.078125 0.796875 -0.234375 C 0.640625 -0.390625 0.5625 -0.675781 0.5625 -1.09375 L 0.5625 -2.921875 L 0.171875 -2.921875 L 0.171875 -3.34375 L 0.5625 -3.34375 L 0.5625 -4.296875 Z "/>
</g>
<g id="glyph-0-12">
<path d="M 0.515625 -1.3125 L 0.515625 -3.34375 L 1.0625 -3.34375 L 1.0625 -1.34375 C 1.0625 -1.019531 1.125 -0.78125 1.25 -0.625 C 1.375 -0.46875 1.5625 -0.390625 1.8125 -0.390625 C 2.101562 -0.390625 2.332031 -0.484375 2.5 -0.671875 C 2.675781 -0.859375 2.765625 -1.117188 2.765625 -1.453125 L 2.765625 -3.34375 L 3.3125 -3.34375 L 3.3125 0 L 2.765625 0 L 2.765625 -0.515625 C 2.628906 -0.304688 2.472656 -0.148438 2.296875 -0.046875 C 2.128906 0.0429688 1.925781 0.09375 1.6875 0.09375 C 1.300781 0.09375 1.007812 -0.0234375 0.8125 -0.265625 C 0.613281 -0.503906 0.515625 -0.851562 0.515625 -1.3125 Z M 1.90625 -3.421875 Z "/>
</g>
<g id="glyph-0-13">
<path d="M 1.9375 -4.0625 C 1.632812 -4.0625 1.40625 -3.90625 1.25 -3.59375 C 1.09375 -3.289062 1.015625 -2.832031 1.015625 -2.21875 C 1.015625 -1.613281 1.09375 -1.15625 1.25 -0.84375 C 1.40625 -0.539062 1.632812 -0.390625 1.9375 -0.390625 C 2.25 -0.390625 2.484375 -0.539062 2.640625 -0.84375 C 2.796875 -1.15625 2.875 -1.613281 2.875 -2.21875 C 2.875 -2.832031 2.796875 -3.289062 2.640625 -3.59375 C 2.484375 -3.90625 2.25 -4.0625 1.9375 -4.0625 Z M 1.9375 -4.53125 C 2.4375 -4.53125 2.816406 -4.332031 3.078125 -3.9375 C 3.347656 -3.539062 3.484375 -2.96875 3.484375 -2.21875 C 3.484375 -1.46875 3.347656 -0.894531 3.078125 -0.5 C 2.816406 -0.101562 2.4375 0.09375 1.9375 0.09375 C 1.4375 0.09375 1.054688 -0.101562 0.796875 -0.5 C 0.535156 -0.894531 0.40625 -1.46875 0.40625 -2.21875 C 0.40625 -2.96875 0.535156 -3.539062 0.796875 -3.9375 C 1.054688 -4.332031 1.4375 -4.53125 1.9375 -4.53125 Z "/>
</g>
<g id="glyph-0-14">
<path d="M 0.65625 -0.75 L 1.28125 -0.75 L 1.28125 0 L 0.65625 0 Z "/>
</g>
<g id="glyph-0-15">
<path d="M 2.3125 -3.921875 L 0.78125 -1.546875 L 2.3125 -1.546875 Z M 2.15625 -4.453125 L 2.90625 -4.453125 L 2.90625 -1.546875 L 3.546875 -1.546875 L 3.546875 -1.046875 L 2.90625 -1.046875 L 2.90625 0 L 2.3125 0 L 2.3125 -1.046875 L 0.296875 -1.046875 L 0.296875 -1.625 Z "/>
</g>
<g id="glyph-0-16">
<path d="M 2.703125 -3.25 L 2.703125 -2.71875 C 2.546875 -2.800781 2.382812 -2.863281 2.21875 -2.90625 C 2.050781 -2.945312 1.878906 -2.96875 1.703125 -2.96875 C 1.429688 -2.96875 1.226562 -2.925781 1.09375 -2.84375 C 0.957031 -2.757812 0.890625 -2.632812 0.890625 -2.46875 C 0.890625 -2.332031 0.9375 -2.226562 1.03125 -2.15625 C 1.125 -2.082031 1.320312 -2.015625 1.625 -1.953125 L 1.8125 -1.90625 C 2.195312 -1.820312 2.472656 -1.703125 2.640625 -1.546875 C 2.804688 -1.398438 2.890625 -1.191406 2.890625 -0.921875 C 2.890625 -0.609375 2.765625 -0.359375 2.515625 -0.171875 C 2.265625 0.00390625 1.925781 0.09375 1.5 0.09375 C 1.320312 0.09375 1.132812 0.0703125 0.9375 0.03125 C 0.75 0 0.546875 -0.0507812 0.328125 -0.125 L 0.328125 -0.6875 C 0.535156 -0.582031 0.734375 -0.503906 0.921875 -0.453125 C 1.117188 -0.398438 1.316406 -0.375 1.515625 -0.375 C 1.773438 -0.375 1.972656 -0.414062 2.109375 -0.5 C 2.253906 -0.59375 2.328125 -0.71875 2.328125 -0.875 C 2.328125 -1.03125 2.273438 -1.144531 2.171875 -1.21875 C 2.066406 -1.300781 1.847656 -1.378906 1.515625 -1.453125 L 1.3125 -1.5 C 0.976562 -1.570312 0.734375 -1.679688 0.578125 -1.828125 C 0.429688 -1.972656 0.359375 -2.175781 0.359375 -2.4375 C 0.359375 -2.75 0.46875 -2.988281 0.6875 -3.15625 C 0.90625 -3.332031 1.222656 -3.421875 1.640625 -3.421875 C 1.835938 -3.421875 2.023438 -3.40625 2.203125 -3.375 C 2.390625 -3.34375 2.554688 -3.300781 2.703125 -3.25 Z "/>
</g>
</g>
</defs>
<g fill="rgb(100%, 100%, 100%)" fill-opacity="1">
<use xlink:href="#glyph-0-0" x="30" y="25.671875"/>
<use xlink:href="#glyph-0-1" x="34" y="25.671875"/>
<use xlink:href="#glyph-0-2" x="38" y="25.671875"/>
<use xlink:href="#glyph-0-1" x="42" y="25.671875"/>
<use xlink:href="#glyph-0-3" x="46" y="25.671875"/>
<use xlink:href="#glyph-0-4" x="48" y="25.671875"/>
<use xlink:href="#glyph-0-4" x="50" y="25.671875"/>
<use xlink:href="#glyph-0-5" x="52" y="25.671875"/>
<use xlink:href="#glyph-0-4" x="56" y="25.671875"/>
<use xlink:href="#glyph-0-6" x="58" y="25.671875"/>
<use xlink:href="#glyph-0-4" x="63" y="25.671875"/>
<use xlink:href="#glyph-0-7" x="65" y="25.671875"/>
<use xlink:href="#glyph-0-8" x="69" y="25.671875"/>
<use xlink:href="#glyph-0-9" x="71" y="25.671875"/>
<use xlink:href="#glyph-0-10" x="75" y="25.671875"/>
<use xlink:href="#glyph-0-4" x="77" y="25.671875"/>
<use xlink:href="#glyph-0-4" x="79" y="25.671875"/>
<use xlink:href="#glyph-0-11" x="81" y="25.671875"/>
<use xlink:href="#glyph-0-1" x="83" y="25.671875"/>
<use xlink:href="#glyph-0-12" x="87" y="25.671875"/>
<use xlink:href="#glyph-0-4" x="91" y="25.671875"/>
<use xlink:href="#glyph-0-6" x="93" y="25.671875"/>
<use xlink:href="#glyph-0-4" x="98" y="25.671875"/>
<use xlink:href="#glyph-0-13" x="100" y="25.671875"/>
<use xlink:href="#glyph-0-14" x="104" y="25.671875"/>
<use xlink:href="#glyph-0-15" x="106" y="25.671875"/>
<use xlink:href="#glyph-0-4" x="110" y="25.671875"/>
<use xlink:href="#glyph-0-16" x="112" y="25.671875"/>
</g>
</svg>
