<?xml version="1.0" encoding="UTF-8"?>
<svg xmlns="http://www.w3.org/2000/svg" xmlns:xlink="http://www.w3.org/1999/xlink" width="854" height="480" viewBox="0 0 854 480">
<defs>
<g>
<g id="glyph-0-0">
<path d="M 2.859375 -2.984375 L 2.859375 -2.53125 C 2.710938 -2.664062 2.554688 -2.765625 2.390625 -2.828125 C 2.222656 -2.898438 2.046875 -2.9375 1.859375 -2.9375 C 1.484375 -2.9375 1.195312 -2.820312 1 -2.59375 C 0.800781 -2.363281 0.703125 -2.035156 0.703125 -1.609375 C 0.703125 -1.179688 0.800781 -0.851562 1 -0.625 C 1.195312 -0.40625 1.484375 -0.296875 1.859375 -0.296875 C 2.046875 -0.296875 2.222656 -0.328125 2.390625 -0.390625 C 2.554688 -0.460938 2.710938 -0.566406 2.859375 -0.703125 L 2.859375 -0.25 C 2.703125 -0.144531 2.535156 -0.0664062 2.359375 -0.015625 C 2.191406 0.0351562 2.015625 0.0625 1.828125 0.0625 C 1.335938 0.0625 0.953125 -0.0859375 0.671875 -0.390625 C 0.390625 -0.691406 0.25 -1.097656 0.25 -1.609375 C 0.25 -2.128906 0.390625 -2.539062 0.671875 -2.84375 C 0.953125 -3.144531 1.335938 -3.296875 1.828125 -3.296875 C 2.023438 -3.296875 2.207031 -3.269531 2.375 -3.21875 C 2.539062 -3.164062 2.703125 -3.085938 2.859375 -2.984375 Z "/>
</g>
<g id="glyph-0-1">
<path d="M 1.515625 -1.21875 C 1.191406 -1.21875 0.96875 -1.179688 0.84375 -1.109375 C 0.726562 -1.035156 0.671875 -0.910156 0.671875 -0.734375 C 0.671875 -0.585938 0.710938 -0.472656 0.796875 -0.390625 C 0.890625 -0.304688 1.019531 -0.265625 1.1875 -0.265625 C 1.40625 -0.265625 1.582031 -0.34375 1.71875 -0.5 C 1.851562 -0.65625 1.921875 -0.863281 1.921875 -1.125 L 1.921875 -1.21875 Z M 2.3125 -1.390625 L 2.3125 0 L 1.921875 0 L 1.921875 -0.375 C 1.828125 -0.21875 1.710938 -0.101562 1.578125 -0.03125 C 1.441406 0.0273438 1.273438 0.0625 1.078125 0.0625 C 0.828125 0.0625 0.628906 -0.00390625 0.484375 -0.140625 C 0.335938 -0.285156 0.265625 -0.472656 0.265625 -0.703125 C 0.265625 -0.972656 0.351562 -1.175781 0.53125 -1.3125 C 0.71875 -1.457031 0.992188 -1.53125 1.359375 -1.53125 L 1.921875 -1.53125 L 1.921875 -1.578125 C 1.921875 -1.753906 1.859375 -1.890625 1.734375 -1.984375 C 1.617188 -2.085938 1.453125 -2.140625 1.234375 -2.140625 C 1.085938 -2.140625 0.945312 -2.125 0.8125 -2.09375 C 0.6875 -2.0625 0.5625 -2.015625 0.4375 -1.953125 L 0.4375 -2.3125 C 0.582031 -2.375 0.722656 -2.414062 0.859375 -2.4375 C 1.003906 -2.46875 1.140625 -2.484375 1.265625 -2.484375 C 1.617188 -2.484375 1.878906 -2.390625 2.046875 -2.203125 C 2.222656 -2.023438 2.3125 -1.753906 2.3125 -1.390625 Z "/>
</g>
<g id="glyph-0-2">
<path d="M 2.4375 -1.46875 L 2.4375 0 L 2.03125 0 L 2.03125 -1.453125 C 2.03125 -1.679688 1.984375 -1.851562 1.890625 -1.96875 C 1.804688 -2.082031 1.675781 -2.140625 1.5 -2.140625 C 1.28125 -2.140625 1.109375 -2.070312 0.984375 -1.9375 C 0.859375 -1.800781 0.796875 -1.613281 0.796875 -1.375 L 0.796875 0 L 0.40625 0 L 0.40625 -2.421875 L 0.796875 -2.421875 L 0.796875 -2.046875 C 0.898438 -2.191406 1.015625 -2.300781 1.140625 -2.375 C 1.265625 -2.445312 1.414062 -2.484375 1.59375 -2.484375 C 1.863281 -2.484375 2.070312 -2.394531 2.21875 -2.21875 C 2.363281 -2.050781 2.4375 -1.800781 2.4375 -1.46875 Z "/>
</g>
<g id="glyph-0-3">
<path d="M 0.8125 -3.109375 L 0.8125 -2.421875 L 1.640625 -2.421875 L 1.640625 -2.109375 L 0.8125 -2.109375 L 0.8125 -0.796875 C 0.8125 -0.597656 0.835938 -0.46875 0.890625 -0.40625 C 0.941406 -0.351562 1.050781 -0.328125 1.21875 -0.328125 L 1.640625 -0.328125 L 1.640625 0 L 1.21875 0 C 0.914062 0 0.703125 -0.0546875 0.578125 -0.171875 C 0.460938 -0.285156 0.40625 -0.492188 0.40625 -0.796875 L 0.40625 -2.109375 L 0.125 -2.109375 L 0.125 -2.421875 L 0.40625 -2.421875 L 0.40625 -3.109375 Z "/>
</g>
<g id="glyph-0-4">
<path d="M 0.421875 -2.421875 L 0.8125 -2.421875 L 0.8125 0 L 0.421875 0 Z M 0.421875 -3.375 L 0.8125 -3.375 L 0.8125 -2.859375 L 0.421875 -2.859375 Z "/>
</g>
<g id="glyph-0-5">
<path d="M 2.015625 -2.0625 L 2.015625 -3.375 L 2.40625 -3.375 L 2.40625 0 L 2.015625 0 L 2.015625 -0.359375 C 1.929688 -0.210938 1.820312 -0.101562 1.6875 -0.03125 C 1.5625 0.0273438 1.410156 0.0625 1.234375 0.0625 C 0.941406 0.0625 0.703125 -0.0507812 0.515625 -0.28125 C 0.335938 -0.519531 0.25 -0.832031 0.25 -1.21875 C 0.25 -1.59375 0.335938 -1.894531 0.515625 -2.125 C 0.703125 -2.363281 0.941406 -2.484375 1.234375 -2.484375 C 1.410156 -2.484375 1.5625 -2.445312 1.6875 -2.375 C 1.820312 -2.3125 1.929688 -2.207031 2.015625 -2.0625 Z M 0.65625 -1.21875 C 0.65625 -0.914062 0.710938 -0.679688 0.828125 -0.515625 C 0.953125 -0.347656 1.117188 -0.265625 1.328125 -0.265625 C 1.546875 -0.265625 1.710938 -0.347656 1.828125 -0.515625 C 1.953125 -0.679688 2.015625 -0.914062 2.015625 -1.21875 C 2.015625 -1.507812 1.953125 -1.738281 1.828125 -1.90625 C 1.710938 -2.070312 1.546875 -2.15625 1.328125 -2.15625 C 1.117188 -2.15625 0.953125 -2.070312 0.828125 -1.90625 C 0.710938 -1.738281 0.65625 -1.507812 0.65625 -1.21875 Z "/>
</g>
<g id="glyph-0-6">
</g>
<g id="glyph-0-7">
<path d="M 2.5 -1.3125 L 2.5 -1.125 L 0.65625 -1.125 C 0.675781 -0.84375 0.757812 -0.628906 0.90625 -0.484375 C 1.050781 -0.347656 1.257812 -0.28125 1.53125 -0.28125 C 1.675781 -0.28125 1.820312 -0.296875 1.96875 -0.328125 C 2.113281 -0.367188 2.257812 -0.425781 2.40625 -0.5 L 2.40625 -0.125 C 2.257812 -0.0625 2.109375 -0.0117188 1.953125 0.015625 C 1.804688 0.046875 1.65625 0.0625 1.5 0.0625 C 1.113281 0.0625 0.804688 -0.046875 0.578125 -0.265625 C 0.359375 -0.492188 0.25 -0.800781 0.25 -1.1875 C 0.25 -1.582031 0.351562 -1.894531 0.5625 -2.125 C 0.78125 -2.363281 1.070312 -2.484375 1.4375 -2.484375 C 1.757812 -2.484375 2.015625 -2.378906 2.203125 -2.171875 C 2.398438 -1.960938 2.5 -1.675781 2.5 -1.3125 Z M 2.09375 -1.4375 C 2.09375 -1.644531 2.03125 -1.8125 1.90625 -1.9375 C 1.789062 -2.070312 1.632812 -2.140625 1.4375 -2.140625 C 1.21875 -2.140625 1.039062 -2.078125 0.90625 -1.953125 C 0.769531 -1.828125 0.691406 -1.648438 0.671875 -1.421875 Z "/>
</g>
<g id="glyph-0-8">
<path d="M 1.640625 -3.375 L 1.640625 -3.046875 L 1.265625 -3.046875 C 1.117188 -3.046875 1.019531 -3.015625 0.96875 -2.953125 C 0.914062 -2.890625 0.890625 -2.785156 0.890625 -2.640625 L 0.890625 -2.421875 L 1.546875 -2.421875 L 1.546875 -2.109375 L 0.890625 -2.109375 L 0.890625 0 L 0.484375 0 L 0.484375 -2.109375 L 0.109375 -2.109375 L 0.109375 -2.421875 L 0.484375 -2.421875 L 0.484375 -2.59375 C 0.484375 -2.863281 0.546875 -3.0625 0.671875 -3.1875 C 0.796875 -3.3125 0.992188 -3.375 1.265625 -3.375 Z "/>
</g>
<g id="glyph-0-9">
<path d="M 1.359375 -2.140625 C 1.140625 -2.140625 0.96875 -2.054688 0.84375 -1.890625 C 0.726562 -1.722656 0.671875 -1.5 0.671875 -1.21875 C 0.671875 -0.925781 0.726562 -0.695312 0.84375 -0.53125 C 0.96875 -0.363281 1.140625 -0.28125 1.359375 -0.28125 C 1.566406 -0.28125 1.734375 -0.363281 1.859375 -0.53125 C 1.984375 -0.695312 2.046875 -0.925781 2.046875 -1.21875 C 2.046875 -1.5 1.984375 -1.722656 1.859375 -1.890625 C 1.734375 -2.054688 1.566406 -2.140625 1.359375 -2.140625 Z M 1.359375 -2.484375 C 1.703125 -2.484375 1.972656 -2.367188 2.171875 -2.140625 C 2.367188 -1.921875 2.46875 -1.613281 2.46875 -1.21875 C 2.46875 -0.8125 2.367188 -0.492188 2.171875 -0.265625 C 1.972656 -0.046875 1.703125 0.0625 1.359375 0.0625 C 1.015625 0.0625 0.742188 -0.046875 0.546875 -0.265625 C 0.347656 -0.492188 0.25 -0.8125 0.25 -1.21875 C 0.25 -1.613281 0.347656 -1.921875 0.546875 -2.140625 C 0.742188 -2.367188 1.015625 -2.484375 1.359375 -2.484375 Z "/>
</g>
<g id="glyph-0-10">
<path d="M 1.828125 -2.046875 C 1.773438 -2.078125 1.722656 -2.097656 1.671875 -2.109375 C 1.617188 -2.117188 1.5625 -2.125 1.5 -2.125 C 1.28125 -2.125 1.109375 -2.050781 0.984375 -1.90625 C 0.859375 -1.757812 0.796875 -1.550781 0.796875 -1.28125 L 0.796875 0 L 0.40625 0 L 0.40625 -2.421875 L 0.796875 -2.421875 L 0.796875 -2.046875 C 0.878906 -2.191406 0.988281 -2.300781 1.125 -2.375 C 1.257812 -2.445312 1.425781 -2.484375 1.625 -2.484375 C 1.644531 -2.484375 1.671875 -2.476562 1.703125 -2.46875 C 1.742188 -2.46875 1.785156 -2.46875 1.828125 -2.46875 Z "/>
</g>
<g id="glyph-0-11">
<path d="M 2.3125 -1.953125 C 2.40625 -2.140625 2.519531 -2.273438 2.65625 -2.359375 C 2.800781 -2.441406 2.96875 -2.484375 3.15625 -2.484375 C 3.40625 -2.484375 3.597656 -2.394531 3.734375 -2.21875 C 3.878906 -2.039062 3.953125 -1.789062 3.953125 -1.46875 L 3.953125 0 L 3.546875 0 L 3.546875 -1.453125 C 3.546875 -1.679688 3.503906 -1.851562 3.421875 -1.96875 C 3.335938 -2.082031 3.210938 -2.140625 3.046875 -2.140625 C 2.835938 -2.140625 2.671875 -2.070312 2.546875 -1.9375 C 2.429688 -1.800781 2.375 -1.613281 2.375 -1.375 L 2.375 0 L 1.96875 0 L 1.96875 -1.453125 C 1.96875 -1.679688 1.925781 -1.851562 1.84375 -1.96875 C 1.769531 -2.082031 1.644531 -2.140625 1.46875 -2.140625 C 1.257812 -2.140625 1.09375 -2.066406 0.96875 -1.921875 C 0.851562 -1.785156 0.796875 -1.601562 0.796875 -1.375 L 0.796875 0 L 0.40625 0 L 0.40625 -2.421875 L 0.796875 -2.421875 L 0.796875 -2.046875 C 0.890625 -2.191406 1 -2.300781 1.125 -2.375 C 1.257812 -2.445312 1.410156 -2.484375 1.578125 -2.484375 C 1.753906 -2.484375 1.90625 -2.4375 2.03125 -2.34375 C 2.15625 -2.257812 2.25 -2.128906 2.3125 -1.953125 Z "/>
</g>
<g id="glyph-0-12">
<path d="M 2.171875 -2.328125 L 2.171875 -1.953125 C 2.054688 -2.015625 1.941406 -2.0625 1.828125 -2.09375 C 1.710938 -2.125 1.597656 -2.140625 1.484375 -2.140625 C 1.222656 -2.140625 1.019531 -2.054688 0.875 -1.890625 C 0.738281 -1.734375 0.671875 -1.507812 0.671875 -1.21875 C 0.671875 -0.914062 0.738281 -0.679688 0.875 -0.515625 C 1.019531 -0.359375 1.222656 -0.28125 1.484375 -0.28125 C 1.597656 -0.28125 1.710938 -0.296875 1.828125 -0.328125 C 1.941406 -0.359375 2.054688 -0.40625 2.171875 -0.46875 L 2.171875 -0.09375 C 2.054688 -0.0390625 1.9375 -0.00390625 1.8125 0.015625 C 1.695312 0.046875 1.570312 0.0625 1.4375 0.0625 C 1.070312 0.0625 0.78125 -0.0507812 0.5625 -0.28125 C 0.351562 -0.507812 0.25 -0.820312 0.25 -1.21875 C 0.25 -1.613281 0.351562 -1.921875 0.5625 -2.140625 C 0.78125 -2.367188 1.082031 -2.484375 1.46875 -2.484375 C 1.59375 -2.484375 1.710938 -2.46875 1.828125 -2.4375 C 1.941406 -2.414062 2.054688 -2.378906 2.171875 -2.328125 Z "/>
</g>
<g id="glyph-0-13">
<path d="M 1.359375 -2.140625 C 1.140625 -2.140625 0.96875 -2.054688 0.84375 -1.890625 C 0.726562 -1.722656 0.671875 -1.5 0.671875 -1.21875 C 0.671875 -0.925781 0.726562 -0.695312 0.84375 -0.53125 C 0.96875 -0.363281 1.140625 -0.28125 1.359375 -0.28125 C 1.566406 -0.28125 1.734375 -0.363281 1.859375 -0.53125 C 1.984375 -0.695312 2.046875 -0.925781 2.046875 -1.21875 C 2.046875 -1.5 1.984375 -1.722656 1.859375 -1.890625 C 1.734375 -2.054688 1.566406 -2.140625 1.359375 -2.140625 Z M 1.359375 -2.484375 C 1.703125 -2.484375 1.972656 -2.367188 2.171875 -2.140625 C 2.367188 -1.921875 2.46875 -1.613281 2.46875 -1.21875 C 2.46875 -0.8125 2.367188 -0.492188 2.171875 -0.265625 C 1.972656 -0.046875 1.703125 0.0625 1.359375 0.0625 C 1.015625 0.0625 0.742188 -0.046875 0.546875 -0.265625 C 0.347656 -0.492188 0.25 -0.8125 0.25 -1.21875 C 0.25 -1.613281 0.347656 -1.921875 0.546875 -2.140625 C 0.742188 -2.367188 1.015625 -2.484375 1.359375 -2.484375 Z M 1.65625 -3.546875 L 2.09375 -3.546875 L 1.390625 -2.734375 L 1.046875 -2.734375 Z "/>
</g>
</g>
</defs>
<g fill="rgb(73.333333%, 73.333333%, 73.333333%)" fill-opacity="1">
<use xlink:href="#glyph-0-0" x="30" y="24.125"/>
<use xlink:href="#glyph-0-1" x="33" y="24.125"/>
<use xlink:href="#glyph-0-2" x="36" y="24.125"/>
<use xlink:href="#glyph-0-3" x="39" y="24.125"/>
<use xlink:href="#glyph-0-4" x="41" y="24.125"/>
<use xlink:href="#glyph-0-5" x="42" y="24.125"/>
<use xlink:href="#glyph-0-1" x="45" y="24.125"/>
<use xlink:href="#glyph-0-5" x="48" y="24.125"/>
<use xlink:href="#glyph-0-6" x="51" y="24.125"/>
<use xlink:href="#glyph-0-5" x="52" y="24.125"/>
<use xlink:href="#glyph-0-7" x="55" y="24.125"/>
<use xlink:href="#glyph-0-6" x="58" y="24.125"/>
<use xlink:href="#glyph-0-4" x="59" y="24.125"/>
<use xlink:href="#glyph-0-2" x="60" y="24.125"/>
<use xlink:href="#glyph-0-8" x="63" y="24.125"/>
<use xlink:href="#glyph-0-9" x="65" y="24.125"/>
<use xlink:href="#glyph-0-10" x="68" y="24.125"/>
<use xlink:href="#glyph-0-11" x="70" y="24.125"/>
<use xlink:href="#glyph-0-1" x="74" y="24.125"/>
<use xlink:href="#glyph-0-12" x="77" y="24.125"/>
<use xlink:href="#glyph-0-4" x="79" y="24.125"/>
<use xlink:href="#glyph-0-13" x="80" y="24.125"/>
<use xlink:href="#glyph-0-2" x="83" y="24.125"/>
</g>
</svg>
