<?xml version="1.0" encoding="UTF-8"?>
<svg xmlns="http://www.w3.org/2000/svg" xmlns:xlink="http://www.w3.org/1999/xlink" width="854" height="480" viewBox="0 0 854 480">
<defs>
<g>
<g id="glyph-0-0">
<path d="M 2.71875 -2.09375 C 2.84375 -2.039062 2.960938 -1.941406 3.078125 -1.796875 C 3.203125 -1.660156 3.328125 -1.46875 3.453125 -1.21875 L 4.0625 0 L 3.421875 0 L 2.859375 -1.140625 C 2.703125 -1.441406 2.554688 -1.640625 2.421875 -1.734375 C 2.285156 -1.828125 2.097656 -1.875 1.859375 -1.875 L 1.203125 -1.875 L 1.203125 0 L 0.59375 0 L 0.59375 -4.453125 L 1.953125 -4.453125 C 2.460938 -4.453125 2.84375 -4.34375 3.09375 -4.125 C 3.34375 -3.914062 3.46875 -3.597656 3.46875 -3.171875 C 3.46875 -2.890625 3.398438 -2.65625 3.265625 -2.46875 C 3.140625 -2.289062 2.957031 -2.164062 2.71875 -2.09375 Z M 1.203125 -3.953125 L 1.203125 -2.375 L 1.953125 -2.375 C 2.242188 -2.375 2.460938 -2.441406 2.609375 -2.578125 C 2.765625 -2.710938 2.84375 -2.910156 2.84375 -3.171875 C 2.84375 -3.429688 2.765625 -3.625 2.609375 -3.75 C 2.460938 -3.882812 2.242188 -3.953125 1.953125 -3.953125 Z "/>
</g>
<g id="glyph-0-1">
<path d="M 3.4375 -1.8125 L 3.4375 -1.546875 L 0.90625 -1.546875 C 0.9375 -1.160156 1.050781 -0.867188 1.25 -0.671875 C 1.457031 -0.472656 1.742188 -0.375 2.109375 -0.375 C 2.316406 -0.375 2.519531 -0.398438 2.71875 -0.453125 C 2.914062 -0.503906 3.113281 -0.582031 3.3125 -0.6875 L 3.3125 -0.171875 C 3.113281 -0.0859375 2.910156 -0.0234375 2.703125 0.015625 C 2.492188 0.0664062 2.28125 0.09375 2.0625 0.09375 C 1.53125 0.09375 1.109375 -0.0625 0.796875 -0.375 C 0.492188 -0.6875 0.34375 -1.109375 0.34375 -1.640625 C 0.34375 -2.179688 0.488281 -2.613281 0.78125 -2.9375 C 1.070312 -3.257812 1.46875 -3.421875 1.96875 -3.421875 C 2.425781 -3.421875 2.785156 -3.273438 3.046875 -2.984375 C 3.304688 -2.691406 3.4375 -2.300781 3.4375 -1.8125 Z M 2.890625 -1.96875 C 2.878906 -2.269531 2.789062 -2.507812 2.625 -2.6875 C 2.46875 -2.863281 2.253906 -2.953125 1.984375 -2.953125 C 1.671875 -2.953125 1.421875 -2.863281 1.234375 -2.6875 C 1.054688 -2.519531 0.953125 -2.28125 0.921875 -1.96875 Z "/>
</g>
<g id="glyph-0-2">
<path d="M 2.984375 -3.21875 L 2.984375 -2.703125 C 2.828125 -2.785156 2.671875 -2.847656 2.515625 -2.890625 C 2.359375 -2.929688 2.203125 -2.953125 2.046875 -2.953125 C 1.679688 -2.953125 1.398438 -2.835938 1.203125 -2.609375 C 1.015625 -2.390625 0.921875 -2.078125 0.921875 -1.671875 C 0.921875 -1.265625 1.015625 -0.945312 1.203125 -0.71875 C 1.398438 -0.488281 1.679688 -0.375 2.046875 -0.375 C 2.203125 -0.375 2.359375 -0.394531 2.515625 -0.4375 C 2.671875 -0.476562 2.828125 -0.546875 2.984375 -0.640625 L 2.984375 -0.125 C 2.828125 -0.0507812 2.664062 0 2.5 0.03125 C 2.34375 0.0703125 2.171875 0.09375 1.984375 0.09375 C 1.472656 0.09375 1.070312 -0.0625 0.78125 -0.375 C 0.488281 -0.695312 0.34375 -1.128906 0.34375 -1.671875 C 0.34375 -2.210938 0.488281 -2.640625 0.78125 -2.953125 C 1.082031 -3.265625 1.492188 -3.421875 2.015625 -3.421875 C 2.179688 -3.421875 2.34375 -3.398438 2.5 -3.359375 C 2.664062 -3.328125 2.828125 -3.28125 2.984375 -3.21875 Z "/>
</g>
<g id="glyph-0-3">
<path d="M 1.109375 -0.5 L 1.109375 1.265625 L 0.5625 1.265625 L 0.5625 -3.34375 L 1.109375 -3.34375 L 1.109375 -2.828125 C 1.222656 -3.023438 1.367188 -3.171875 1.546875 -3.265625 C 1.722656 -3.367188 1.929688 -3.421875 2.171875 -3.421875 C 2.578125 -3.421875 2.90625 -3.257812 3.15625 -2.9375 C 3.414062 -2.613281 3.546875 -2.191406 3.546875 -1.671875 C 3.546875 -1.140625 3.414062 -0.710938 3.15625 -0.390625 C 2.90625 -0.0664062 2.578125 0.09375 2.171875 0.09375 C 1.929688 0.09375 1.722656 0.0429688 1.546875 -0.046875 C 1.367188 -0.148438 1.222656 -0.300781 1.109375 -0.5 Z M 2.96875 -1.671875 C 2.96875 -2.066406 2.882812 -2.378906 2.71875 -2.609375 C 2.550781 -2.847656 2.328125 -2.96875 2.046875 -2.96875 C 1.753906 -2.96875 1.523438 -2.847656 1.359375 -2.609375 C 1.191406 -2.378906 1.109375 -2.066406 1.109375 -1.671875 C 1.109375 -1.265625 1.191406 -0.945312 1.359375 -0.71875 C 1.523438 -0.488281 1.753906 -0.375 2.046875 -0.375 C 2.328125 -0.375 2.550781 -0.488281 2.71875 -0.71875 C 2.882812 -0.945312 2.96875 -1.265625 2.96875 -1.671875 Z "/>
</g>
<g id="glyph-0-4">
<path d="M 1.125 -4.296875 L 1.125 -3.34375 L 2.25 -3.34375 L 2.25 -2.921875 L 1.125 -2.921875 L 1.125 -1.09375 C 1.125 -0.820312 1.160156 -0.644531 1.234375 -0.5625 C 1.304688 -0.488281 1.457031 -0.453125 1.6875 -0.453125 L 2.25 -0.453125 L 2.25 0 L 1.6875 0 C 1.257812 0 0.960938 -0.078125 0.796875 -0.234375 C 0.640625 -0.390625 0.5625 -0.675781 0.5625 -1.09375 L 0.5625 -2.921875 L 0.171875 -2.921875 L 0.171875 -3.34375 L 0.5625 -3.34375 L 0.5625 -4.296875 Z "/>
</g>
<g id="glyph-0-5">
<path d="M 1.875 -2.953125 C 1.570312 -2.953125 1.335938 -2.835938 1.171875 -2.609375 C 1.003906 -2.378906 0.921875 -2.066406 0.921875 -1.671875 C 0.921875 -1.265625 1.003906 -0.945312 1.171875 -0.71875 C 1.335938 -0.488281 1.570312 -0.375 1.875 -0.375 C 2.164062 -0.375 2.394531 -0.488281 2.5625 -0.71875 C 2.738281 -0.957031 2.828125 -1.273438 2.828125 -1.671875 C 2.828125 -2.066406 2.738281 -2.378906 2.5625 -2.609375 C 2.394531 -2.835938 2.164062 -2.953125 1.875 -2.953125 Z M 1.875 -3.421875 C 2.351562 -3.421875 2.726562 -3.265625 3 -2.953125 C 3.269531 -2.640625 3.40625 -2.210938 3.40625 -1.671875 C 3.40625 -1.117188 3.269531 -0.6875 3 -0.375 C 2.726562 -0.0625 2.351562 0.09375 1.875 0.09375 C 1.394531 0.09375 1.019531 -0.0625 0.75 -0.375 C 0.476562 -0.6875 0.34375 -1.117188 0.34375 -1.671875 C 0.34375 -2.210938 0.476562 -2.640625 0.75 -2.953125 C 1.019531 -3.265625 1.394531 -3.421875 1.875 -3.421875 Z "/>
</g>
<g id="glyph-0-6">
<path d="M 2.515625 -2.828125 C 2.453125 -2.859375 2.382812 -2.882812 2.3125 -2.90625 C 2.238281 -2.925781 2.15625 -2.9375 2.0625 -2.9375 C 1.757812 -2.9375 1.523438 -2.832031 1.359375 -2.625 C 1.191406 -2.425781 1.109375 -2.140625 1.109375 -1.765625 L 1.109375 0 L 0.5625 0 L 0.5625 -3.34375 L 1.109375 -3.34375 L 1.109375 -2.828125 C 1.222656 -3.023438 1.367188 -3.171875 1.546875 -3.265625 C 1.734375 -3.367188 1.960938 -3.421875 2.234375 -3.421875 C 2.265625 -3.421875 2.300781 -3.414062 2.34375 -3.40625 C 2.394531 -3.40625 2.453125 -3.398438 2.515625 -3.390625 Z "/>
</g>
</g>
</defs>
<g fill="rgb(100%, 100%, 100%)" fill-opacity="1">
<use xlink:href="#glyph-0-0" x="30" y="25.671875"/>
<use xlink:href="#glyph-0-1" x="34" y="25.671875"/>
<use xlink:href="#glyph-0-2" x="38" y="25.671875"/>
<use xlink:href="#glyph-0-1" x="41" y="25.671875"/>
<use xlink:href="#glyph-0-3" x="45" y="25.671875"/>
<use xlink:href="#glyph-0-4" x="49" y="25.671875"/>
<use xlink:href="#glyph-0-5" x="51" y="25.671875"/>
<use xlink:href="#glyph-0-6" x="55" y="25.671875"/>
</g>
</svg>
